HIERARCHY
ROOT Hips
{
  OFFSET 0 89.5177 0.535
  CHANNELS 6 Xposition Yposition Zposition Zrotation Xrotation Yrotation
  JOINT Spine
  {
    OFFSET 12.0259 -0.162855 1.69034e-005
    CHANNELS 3 Zrotation Xrotation Yrotation
    JOINT Spine1
    {
      OFFSET 15.3169 -0.0121922 0
      CHANNELS 3 Zrotation Xrotation Yrotation
      JOINT Spine2
      {
        OFFSET 15.3176 -0.0121908 0
        CHANNELS 3 Zrotation Xrotation Yrotation
        JOINT Neck
        {
          OFFSET 19.9142 1.56338 0
          CHANNELS 3 Zrotation Xrotation Yrotation
          JOINT Head
          {
            OFFSET 6.92651 0 0
            CHANNELS 3 Zrotation Xrotation Yrotation
            End Site
            {
              OFFSET 20.7666 0 0
            }
          }
          JOINT LeftShoulder
          {
            OFFSET -6.20654 0.708824 7.28219
            CHANNELS 3 Zrotation Xrotation Yrotation
            JOINT LeftArm
            {
              OFFSET 14.108 0 -1.52588e-005
              CHANNELS 3 Zrotation Xrotation Yrotation
              JOINT LeftForeArm
              {
                OFFSET 28.5802 0 0
                CHANNELS 3 Zrotation Xrotation Yrotation
                JOINT LeftHand
                {
                  OFFSET 27.092 0 0
                  CHANNELS 3 Zrotation Xrotation Yrotation
                  End Site
                  {
                    OFFSET 9.55928 -0.186424 0.145352
                  }
                }
              }
            }
          }
          JOINT RightShoulder
          {
            OFFSET -6.20654 0.708866 -7.28218
            CHANNELS 3 Zrotation Xrotation Yrotation
            JOINT RightArm
            {
              OFFSET 14.108 0 1.52588e-005
              CHANNELS 3 Zrotation Xrotation Yrotation
              JOINT RightForeArm
              {
                OFFSET 28.5802 0 0
                CHANNELS 3 Zrotation Xrotation Yrotation
                JOINT RightHand
                {
                  OFFSET 27.092 0 0
                  CHANNELS 3 Zrotation Xrotation Yrotation
                  End Site
                  {
                    OFFSET 9.55929 -0.186417 -0.145354
                  }
                }
              }
            }
          }
        }
      }
    }
  }
  JOINT LeftUpLeg
  {
    OFFSET 0.005 -0.535 8.837
    CHANNELS 3 Zrotation Xrotation Yrotation
    JOINT LeftLeg
    {
      OFFSET 39.9035 0 0
      CHANNELS 3 Zrotation Xrotation Yrotation
      JOINT LeftFoot
      {
        OFFSET 39.6689 0 0
        CHANNELS 3 Zrotation Xrotation Yrotation
        JOINT LeftToe
        {
          OFFSET 10.1624 13.6296 0
          CHANNELS 3 Zrotation Xrotation Yrotation
          End Site
          {
            OFFSET 8.38147 0 0
          }
        }
      }
    }
  }
  JOINT RightUpLeg
  {
    OFFSET 0.005 -0.535 -8.837
    CHANNELS 3 Zrotation Xrotation Yrotation
    JOINT RightLeg
    {
      OFFSET 39.9035 0 0
      CHANNELS 3 Zrotation Xrotation Yrotation
      JOINT RightFoot
      {
        OFFSET 39.6689 0 0
        CHANNELS 3 Zrotation Xrotation Yrotation
        JOINT RightToe
        {
          OFFSET 10.1624 13.6296 0
          CHANNELS 3 Zrotation Xrotation Yrotation
          End Site
          {
            OFFSET 8.38147 0 0
          }
        }
      }
    }
  }
}
MOTION
Frames:	15
Frame Time:	0.0333333
540.942 85.8378 -162.433 145.337 -84.1424 53.6391 -1.19785 0.0561674 -0.821423 -2.39477 0.129952 -1.64131 -2.39477 0.129952 -1.64132 -8.30788e-012 -9.0191e-006 -5.27751e-005 10.4412 1.58634 -2.78775 179.018 -12.9782 -94.3661 -25.9442 -48.6786 -6.28416 -7.50424e-006 0 -7.95139e-016 -39.5809 -27.2683 -27.3543 178.832 7.10907 99.3551 73.3927 68.9768 -82.0778 -0.684289 -7.95139e-016 -0 -32.94 15.7793 19.4955 -18.6542 1.13556 -179.068 -35.5984 0 -0 22.7674 7.00031 0.78824 90 -6.21202e-018 -0 -18.3511 -3.14682 -179.074 -33.108 0 -0 19.506 -4.07837 -0.0871163 90 6.54037e-021 -1.59028e-015 
540.882 85.8402 -162.336 145.385 -84.0886 53.6993 -1.21609 0.061209 -0.827465 -2.43116 0.140423 -1.65326 -2.43116 0.140423 -1.65327 -8.30748e-012 -9.0191e-006 -5.27751e-005 10.3925 1.64638 -2.8334 179.018 -13.0016 -94.3583 -26.0499 -48.6934 -6.29577 -7.51356e-006 -1.27222e-014 -1.19271e-015 -39.6849 -27.2973 -27.3584 178.839 7.10346 99.3057 74.1174 69.1258 -82.7787 -0.570914 7.95139e-016 -0 -33.0945 15.5538 19.3535 -18.7831 1.18686 -179.123 -35.6344 -1.59028e-015 -9.93923e-016 22.7872 7.05024 0.830901 90 -6.21202e-018 -3.97569e-016 -18.475 -3.14801 -179.143 -33.128 -9.93923e-017 -4.96962e-017 19.4534 -4.07289 -0.0379075 90 -1.10902e-020 1.59028e-015 
540.819 85.8449 -162.248 145.555 -84.0509 53.8904 -1.2262 0.0757037 -0.83493 -2.45116 0.169712 -1.66787 -2.45116 0.169713 -1.66787 -8.30688e-012 -9.0191e-006 -5.27751e-005 10.2379 1.69112 -2.93476 179.015 -12.9258 -94.3937 -25.9984 -48.7723 -6.24866 -7.52268e-006 0 -1.59028e-015 -39.5987 -27.2512 -27.319 178.838 7.099 99.3233 74.2258 69.0992 -82.8727 -0.594156 0 -0 -33.4173 15.6185 19.4483 -18.8852 1.21831 -179.191 -35.6394 0 -1.98785e-016 22.7753 7.07373 0.877262 90 6.21202e-018 7.95139e-016 -18.5762 -3.10701 -179.217 -33.1375 9.93923e-017 -4.96962e-017 19.4085 -4.07584 0.0178359 90 1.51661e-020 1.59028e-015 
540.747 85.8429 -162.168 145.779 -84.0734 54.1523 -1.22434 0.0859158 -0.834823 -2.4473 0.190126 -1.66952 -2.4473 0.190126 -1.66953 -8.30728e-012 -9.0191e-006 -5.27751e-005 9.97275 1.75967 -3.1061 179.018 -12.9219 -94.385 -25.9823 -48.9615 -6.22885 -7.53159e-006 -3.18055e-015 -0 -39.6592 -27.2338 -27.3547 178.835 7.07777 99.372 74.7215 69.1508 -83.3898 -0.579466 7.95139e-016 -0 -33.5844 15.5983 19.445 -18.9233 1.23765 -179.285 -35.6301 -7.95139e-016 1.98785e-016 22.7031 7.03153 0.940318 90 -6.21202e-018 7.95139e-016 -18.6726 -3.16943 -179.332 -33.1984 9.93923e-017 4.96962e-017 19.3726 -4.17256 0.0739115 90 -5.73467e-021 7.95139e-016 
540.68 85.8346 -162.096 145.64 -84.1328 54.0169 -1.19233 0.0906741 -0.834568 -2.38326 0.198995 -1.65203 -2.38326 0.198995 -1.65204 -8.30728e-012 -9.0191e-006 -5.27751e-005 9.55244 1.95274 -3.31911 179.031 -12.9715 -94.3121 -26.0056 -48.9089 -6.2889 -7.54029e-006 1.27222e-014 -0 -39.6589 -27.3236 -27.3476 178.82 7.09806 99.4611 75.0211 69.1592 -83.771 -0.589314 0 7.95139e-016 -33.5519 15.5612 19.4177 -18.9528 1.27799 -179.331 -35.7078 7.95139e-016 5.96354e-016 22.7349 7.0445 0.990397 90 1.2424e-017 -0 -18.6989 -3.14624 -179.387 -33.2597 -1.98785e-016 -0 19.3549 -4.19691 0.127535 90 2.82468e-020 7.95139e-016 
540.614 85.8248 -162.023 145.119 -84.1975 53.5141 -1.16111 0.0893828 -0.834263 -2.32082 0.195978 -1.65365 -2.32082 0.195979 -1.65366 -8.30728e-012 -9.0191e-006 -5.27751e-005 9.14319 2.20967 -3.39306 179.049 -12.9201 -94.2479 -25.8991 -48.8139 -6.35014 -7.54877e-006 -6.36111e-015 1.19271e-015 -39.5727 -27.2015 -27.2938 178.817 7.07097 99.5212 75.8878 69.1587 -84.6103 -0.601712 0 -0 -33.6278 15.3094 19.2846 -18.9396 1.24568 -179.412 -35.7497 -1.59028e-015 1.98785e-016 22.6805 6.99688 1.04977 90 6.21202e-018 -7.95139e-016 -18.7084 -3.126 -179.456 -33.3408 0 7.45443e-017 19.348 -4.18856 0.178259 90 -1.40997e-021 -7.95139e-016 
540.549 85.8163 -161.952 144.909 -84.2624 53.3354 -1.14678 0.102564 -0.834008 -2.29194 0.222288 -1.66927 -2.29194 0.222288 -1.66928 -8.30748e-012 -9.0191e-006 -5.27751e-005 8.93946 2.40058 -3.40345 179.056 -12.8312 -94.2415 -25.8263 -48.9247 -6.29976 -7.55701e-006 0 1.59028e-015 -39.6276 -26.992 -27.2631 178.82 7.05599 99.521 76.1928 69.1518 -84.8884 -0.639166 1.98785e-016 7.95139e-016 -33.5785 15.108 19.1769 -18.9385 1.26625 -179.491 -35.7863 -7.95139e-016 -1.98785e-016 22.6519 6.97835 1.10524 90 -6.21202e-018 3.97569e-016 -18.7433 -3.0864 -179.535 -33.424 -1.98785e-016 2.48481e-017 19.337 -4.18982 0.231751 90 -9.79574e-021 -1.59028e-015 
540.49 85.8147 -161.901 144.725 -84.3287 53.1695 -1.14243 0.107708 -0.833902 -2.28317 0.232474 -1.66531 -2.28317 0.232474 -1.66532 -8.30768e-012 -9.0191e-006 -5.27751e-005 8.91132 2.69843 -3.46858 179.078 -12.844 -94.1407 -25.8793 -48.8209 -6.2095 -7.565e-006 6.36111e-015 1.19271e-015 -39.6903 -26.9364 -27.2928 178.82 7.09304 99.4695 76.2487 69.2236 -85.1021 -0.691539 1.98785e-016 7.95139e-016 -33.4099 14.8729 19.0007 -18.9147 1.31951 -179.543 -35.8101 1.59028e-015 -1.98785e-016 22.6681 6.99315 1.14962 90 0 3.97569e-016 -18.7358 -3.08513 -179.594 -33.4571 9.93923e-017 1.2424e-016 19.3164 -4.20733 0.271405 90 5.02672e-021 -0 
540.423 85.8184 -161.865 144.785 -84.3586 53.2371 -1.15496 0.111586 -0.836245 -2.30815 0.24054 -1.67807 -2.30815 0.24054 -1.67808 -8.30708e-012 -9.0191e-006 -5.27751e-005 9.1002 2.95966 -3.49021 179.091 -12.7938 -94.0976 -25.8053 -48.5483 -5.99161 -7.57273e-006 6.36111e-015 3.97569e-016 -39.6342 -27.009 -27.2743 178.815 7.19376 99.3782 76.0157 69.296 -85.2179 -0.704539 -1.98785e-016 -1.59028e-015 -33.1609 14.5707 18.8147 -18.9027 1.29947 -179.607 -35.7859 -1.59028e-015 -5.96354e-016 22.6191 6.95077 1.20382 90 0 -0 -18.7404 -3.09138 -179.658 -33.4502 -4.96962e-017 4.96962e-017 19.2885 -4.25728 0.325306 90 -1.47869e-020 3.18055e-015 
540.36 85.8155 -161.833 144.481 -84.4043 52.9419 -1.1533 0.0978391 -0.839975 -2.30505 0.213018 -1.67763 -2.30505 0.213018 -1.67764 -8.30768e-012 -9.0191e-006 -5.27751e-005 9.34839 3.20563 -3.57921 179.103 -12.7324 -94.0643 -25.5717 -48.4318 -5.64614 -7.5802e-006 -3.18055e-015 -0 -39.5732 -27.1673 -27.332 178.841 7.1907 99.1854 74.329 69.4259 -83.9516 -0.820912 7.95139e-016 -0 -32.9104 14.2856 18.5745 -18.8789 1.32963 -179.658 -35.8137 -7.95139e-016 1.98785e-016 22.6446 6.95755 1.24996 90 -1.2424e-017 -7.95139e-016 -18.7223 -3.07908 -179.714 -33.4776 -4.96962e-017 -2.48481e-017 19.2836 -4.25809 0.374075 90 -9.66837e-021 -1.59028e-015 
540.31 85.8064 -161.782 144.68 -84.4892 53.1813 -1.15248 0.0884371 -0.842222 -2.30354 0.19425 -1.68231 -2.30354 0.19425 -1.68232 -8.30748e-012 -9.0191e-006 -5.27751e-005 9.57598 3.35016 -3.66489 179.109 -12.7019 -94.0487 -25.2899 -48.5378 -5.27441 -7.58738e-006 6.36111e-015 -3.97569e-016 -39.4377 -27.1818 -27.1642 178.843 7.17868 99.1803 73.7349 69.4466 -83.7916 -0.780202 3.97569e-016 1.59028e-015 -32.9495 14.1331 18.432 -18.8624 1.39671 -179.719 -35.8398 -7.95139e-016 -9.93923e-016 22.6301 6.94268 1.29086 90 -6.21202e-018 -3.97569e-016 -18.7499 -2.95724 -179.772 -33.5625 -9.93923e-017 -9.93923e-017 19.2893 -4.22642 0.419641 90 1.11376e-020 -0 
540.267 85.7924 -161.727 144.671 -84.6191 53.1963 -1.13467 0.0934428 -0.852226 -2.26782 0.204197 -1.70225 -2.26782 0.204197 -1.70226 -8.30748e-012 -9.0191e-006 -5.27751e-005 9.70219 3.34847 -3.73002 179.102 -12.6792 -94.0836 -25.1972 -48.5036 -5.00158 -7.59427e-006 -9.54166e-015 -0 -39.3657 -27.2175 -27.155 178.842 7.20236 99.1579 73.6157 69.4537 -83.9957 -0.79761 3.97569e-016 2.38542e-015 -32.838 14.0797 18.361 -18.8138 1.43785 -179.764 -35.8923 0 -7.95139e-016 22.6022 6.90267 1.3317 90 6.21202e-018 3.97569e-016 -18.7323 -2.73268 -179.782 -33.6594 -9.93923e-017 -9.93923e-017 19.303 -4.10378 0.462605 90 1.85784e-020 -0 
540.234 85.7763 -161.671 144.727 -84.7285 53.2575 -1.1144 0.10175 -0.862554 -2.22714 0.22071 -1.72279 -2.22714 0.22071 -1.7228 -8.30768e-012 -9.0191e-006 -5.27751e-005 9.75411 3.22166 -3.68245 179.095 -12.6828 -94.113 -25.214 -48.418 -4.87012 -7.60086e-006 3.18055e-015 7.95139e-016 -39.3078 -27.249 -27.1859 178.836 7.21152 99.1959 74.2706 69.41 -84.7974 -0.813992 -3.97569e-016 -1.59028e-015 -32.7178 14.0407 18.3026 -18.7977 1.44382 -179.792 -35.9631 7.95139e-016 3.97569e-016 22.5685 6.84793 1.36677 90 -2.48481e-017 -7.95139e-016 -18.7399 -2.66049 -179.793 -33.7546 0 -4.96962e-017 19.3069 -4.07373 0.487331 90 5.40291e-021 7.95139e-016 
540.205 85.7627 -161.616 144.749 -84.7794 53.2825 -1.09995 0.105394 -0.869678 -2.19818 0.227916 -1.73699 -2.19818 0.227916 -1.737 -8.30708e-012 -9.0191e-006 -5.27751e-005 9.76718 3.02735 -3.61929 179.078 -12.7175 -94.1827 -25.2529 -48.6551 -4.73527 -7.60713e-006 -9.54166e-015 -7.95139e-016 -39.3348 -27.1756 -27.0586 178.833 7.19976 99.2333 74.3338 69.3782 -84.9197 -0.833953 0 2.38542e-015 -32.7611 14.0161 18.4006 -18.8329 1.48518 -179.808 -36.038 7.95139e-016 1.98785e-016 22.5682 6.84407 1.39369 90 6.21202e-018 -3.97569e-016 -18.779 -2.61221 -179.815 -33.8335 0 -9.93923e-017 19.3089 -4.049 0.515921 90 3.41237e-021 1.59028e-015 
540.186 85.7543 -161.566 144.535 -84.8102 53.0681 -1.0902 0.108601 -0.884079 -2.1786 0.234454 -1.76575 -2.1786 0.234454 -1.76576 -8.30788e-012 -9.0191e-006 -5.27751e-005 9.82031 2.95845 -3.59598 179.059 -12.73 -94.2625 -25.3242 -48.8002 -4.70979 -7.61308e-006 0 -0 -39.4267 -27.0361 -27.1256 178.827 7.2169 99.2542 74.4463 69.3335 -84.9952 -0.808911 3.97569e-016 7.95139e-016 -32.7626 14.0512 18.3352 -18.8609 1.4857 -179.822 -36.0922 0 -0 22.5589 6.83923 1.41054 90 -1.2424e-017 -0 -18.7942 -2.53757 -179.82 -33.8813 0 -4.96962e-017 19.3071 -3.99385 0.539455 90 -1.04267e-020 -0 
